{"asset":{"generator":"Khronos glTF Blender I/O v1.2.75","version":"2.0"},"scene":0,"scenes":[{"name":"Scene","nodes":[0,1]}],"nodes":[{"name":"Light","rotation":[0.16907575726509094,0.7558803558349609,-0.27217137813568115,0.570947527885437],"translation":[3.969182252883911,6.426429748535156,-3.41607666015625]},{"mesh":0,"name":"Sphere.003","scale":[0.2750000059604645,0.2750000059604645,0.2750000059604645],"translation":[0.0535048209130764,0,-0.05659002438187599]}],"materials":[{"doubleSided":true,"name":"Molecule","pbrMetallicRoughness":{}},{"doubleSided":true,"emissiveFactor":[0,0,0],"name":"Hydrogen","pbrMetallicRoughness":{"baseColorFactor":[0.800000011920929,0.800000011920929,0.800000011920929,1],"metallicFactor":0,"roughnessFactor":0.5}},{"doubleSided":true,"emissiveFactor":[0,0,0],"name":"oxygen","pbrMetallicRoughness":{"baseColorFactor":[0.8000000715255737,0.043513379991054535,0.022284550592303276,1],"metallicFactor":0,"roughnessFactor":0.5}},{"doubleSided":true,"emissiveFactor":[0,0,0],"name":"Material","pbrMetallicRoughness":{"baseColorFactor":[0.3626452684402466,0.3626452684402466,0.3626452684402466,1],"metallicFactor":0,"roughnessFactor":0.4000000059604645}}],"meshes":[{"name":"Sphere.007","primitives":[{"attributes":{"POSITION":0,"NORMAL":1,"TEXCOORD_0":2},"indices":3,"material":0},{"attributes":{"POSITION":4,"NORMAL":5,"TEXCOORD_0":6},"indices":7,"material":1},{"attributes":{"POSITION":8,"NORMAL":9,"TEXCOORD_0":10},"indices":11,"material":2},{"attributes":{"POSITION":12,"NORMAL":13,"TEXCOORD_0":14},"indices":15,"material":3}]}],"accessors":[{"bufferView":0,"componentType":5126,"count":600,"max":[1.000000238418579,1,1.0000003576278687],"min":[-0.9999998211860657,-1,-1],"type":"VEC3"},{"bufferView":1,"componentType":5126,"count":600,"type":"VEC3"},{"bufferView":2,"componentType":5126,"count":600,"type":"VEC2"},{"bufferView":3,"componentType":5123,"count":2880,"type":"SCALAR"},{"bufferView":4,"componentType":5126,"count":600,"max":[-0.06001751124858856,0.1345454454421997,0.3403273820877075],"min":[-0.32910841703414917,-0.1345454454421997,0.07123644649982452],"type":"VEC3"},{"bufferView":5,"componentType":5126,"count":600,"type":"VEC3"},{"bufferView":6,"componentType":5126,"count":600,"type":"VEC2"},{"bufferView":7,"componentType":5123,"count":2880,"type":"SCALAR"},{"bufferView":8,"componentType":5126,"count":1200,"max":[0.7988876104354858,0.23999999463558197,0.44578197598457336],"min":[-0.6254395842552185,-0.23999999463558197,-0.7472814917564392],"type":"VEC3"},{"bufferView":9,"componentType":5126,"count":1200,"type":"VEC3"},{"bufferView":10,"componentType":5126,"count":1200,"type":"VEC2"},{"bufferView":11,"componentType":5123,"count":5760,"type":"SCALAR"},{"bufferView":12,"componentType":5126,"count":272,"max":[0.5056775212287903,0.0324820913374424,0.23826396465301514],"min":[-0.3953434228897095,-0.0324820913374424,-0.48655039072036743],"type":"VEC3"},{"bufferView":13,"componentType":5126,"count":272,"type":"VEC3"},{"bufferView":14,"componentType":5126,"count":272,"type":"VEC2"},{"bufferView":15,"componentType":5123,"count":744,"type":"SCALAR"}],"bufferViews":[{"buffer":0,"byteLength":7200,"byteOffset":0},{"buffer":0,"byteLength":7200,"byteOffset":7200},{"buffer":0,"byteLength":4800,"byteOffset":14400},{"buffer":0,"byteLength":5760,"byteOffset":19200},{"buffer":0,"byteLength":7200,"byteOffset":24960},{"buffer":0,"byteLength":7200,"byteOffset":32160},{"buffer":0,"byteLength":4800,"byteOffset":39360},{"buffer":0,"byteLength":5760,"byteOffset":44160},{"buffer":0,"byteLength":14400,"byteOffset":49920},{"buffer":0,"byteLength":14400,"byteOffset":64320},{"buffer":0,"byteLength":9600,"byteOffset":78720},{"buffer":0,"byteLength":11520,"byteOffset":88320},{"buffer":0,"byteLength":3264,"byteOffset":99840},{"buffer":0,"byteLength":3264,"byteOffset":103104},{"buffer":0,"byteLength":2176,"byteOffset":106368},{"buffer":0,"byteLength":1488,"byteOffset":108544}],"buffers":[{"byteLength":110032,"uri":"data:application/octet-stream;base64,"}]}